<?xml version="1.0" standalone="no"?>
<!DOCTYPE svg PUBLIC "-//W3C//DTD SVG 20010904//EN"
 "http://www.w3.org/TR/2001/REC-SVG-20010904/DTD/svg10.dtd">
<svg version="1.0" xmlns="http://www.w3.org/2000/svg"
 width="512.000000pt" height="512.000000pt" viewBox="0 0 512.000000 512.000000"
 preserveAspectRatio="xMidYMid meet">

<g transform="translate(0.000000,512.000000) scale(0.100000,-0.100000)"
fill="#000000" stroke="none">
<path d="M2415 5114 c-205 -31 -355 -78 -508 -156 -102 -52 -287 -182 -287
-201 0 -6 10 -21 22 -34 l22 -23 -54 -55 -54 -55 -29 28 -28 27 -30 -35 c-50
-59 -149 -210 -186 -283 -19 -38 -52 -122 -73 -186 -71 -215 -70 -194 -70
-1248 l0 -943 -145 0 c-80 0 -145 3 -145 8 0 4 16 99 35 212 19 113 35 210 35
217 0 9 -33 13 -115 15 l-115 3 29 60 c16 33 63 105 106 160 98 126 145 223
153 310 l5 65 -77 0 -76 0 0 -35 c0 -52 -32 -126 -86 -200 l-49 -67 -3 419
c-2 383 -1 419 14 428 83 49 124 117 124 205 0 130 -90 220 -220 220 -130 0
-220 -90 -220 -220 0 -89 37 -150 123 -203 l27 -17 0 -415 c0 -228 -4 -415 -8
-415 -15 0 -104 131 -123 181 -15 40 -19 76 -19 194 l0 145 -76 0 -76 0 4
-172 3 -173 36 -75 c20 -41 71 -120 114 -175 43 -55 90 -127 106 -160 l29 -60
-115 -3 c-82 -2 -115 -6 -115 -15 0 -7 16 -104 35 -217 19 -113 35 -208 35
-212 0 -5 -63 -8 -140 -8 l-140 0 0 -75 0 -75 75 0 75 0 0 -525 0 -525 -120 0
-120 0 0 -225 0 -225 138 0 137 0 150 -150 150 -150 1701 0 1701 0 7 53 c3 28
6 62 6 75 l0 22 -1673 0 -1673 0 -74 75 -74 75 2064 0 2064 0 -74 -75 -74 -75
-173 0 -173 0 0 -75 0 -75 208 0 207 0 150 150 150 150 137 0 138 0 0 225 0
225 -120 0 -120 0 0 525 0 525 75 0 75 0 0 75 0 75 -140 0 c-77 0 -140 3 -140
8 0 4 16 99 35 212 19 113 35 210 35 217 0 9 -33 13 -115 15 l-115 3 29 60
c16 33 63 105 106 160 43 55 94 134 114 175 l36 75 3 173 4 172 -76 0 -76 0 0
-145 c0 -118 -4 -154 -19 -194 -19 -50 -108 -181 -123 -181 -4 0 -8 187 -8
415 l0 415 38 24 c78 50 112 110 112 201 0 124 -93 215 -220 215 -130 0 -220
-90 -220 -220 0 -88 41 -156 124 -205 15 -9 16 -45 14 -428 l-3 -419 -49 67
c-54 74 -86 148 -86 200 l0 35 -76 0 -77 0 5 -65 c8 -87 55 -184 153 -310 43
-55 90 -127 106 -160 l29 -60 -115 -3 c-82 -2 -115 -6 -115 -15 0 -7 16 -104
35 -217 19 -113 35 -208 35 -212 0 -5 -63 -8 -140 -8 l-140 0 0 848 c-1 861
-6 1046 -35 1185 -35 169 -115 358 -216 512 -73 109 -270 305 -384 381 -239
158 -475 233 -760 239 -82 2 -163 1 -180 -1z m397 -175 c439 -87 810 -415 952
-841 63 -186 59 -124 63 -1180 l4 -968 -71 0 -70 0 0 760 0 760 -530 0 -530 0
0 -760 0 -760 -70 0 -70 0 0 760 0 760 -525 0 -525 0 0 75 0 75 525 0 525 0 0
601 0 602 -61 -7 c-100 -12 -242 -52 -334 -95 -259 -121 -473 -342 -575 -593
-30 -73 -36 -69 -11 5 104 303 330 572 615 735 170 98 423 123 688 71z m-482
-734 l0 -435 -371 0 -371 0 6 48 c45 314 246 600 521 740 63 32 188 81 208 82
4 0 7 -196 7 -435z m-1670 -405 c43 -43 11 -120 -50 -120 -38 0 -70 32 -70 70
0 38 32 70 70 70 17 0 39 -9 50 -20z m3900 0 c11 -11 20 -33 20 -50 0 -17 -9
-39 -20 -50 -11 -11 -33 -20 -50 -20 -17 0 -39 9 -50 20 -11 11 -20 33 -20 50
0 17 9 39 20 50 11 11 33 20 50 20 17 0 39 -9 50 -20z m-2230 -1165 l0 -685
-370 0 -370 0 0 685 0 685 370 0 370 0 0 -685z m1200 0 l0 -685 -370 0 -370 0
0 685 0 685 370 0 370 0 0 -685z m-2808 -535 l-25 -150 -86 0 -87 0 -22 138
c-12 75 -22 143 -22 150 0 9 33 12 133 12 l134 0 -25 -150z m3900 0 l-25 -150
-86 0 -87 0 -22 138 c-12 75 -22 143 -22 150 0 9 33 12 133 12 l134 0 -25
-150z m-4082 -675 l0 -375 -75 0 -75 0 0 375 0 375 75 0 75 0 0 -375z m300
298 l0 -78 -75 0 -75 0 0 78 0 77 75 0 75 0 0 -77z m300 -298 l0 -375 -75 0
-75 0 0 375 0 375 75 0 75 0 0 -375z m590 0 l0 -375 -70 0 -70 0 0 375 0 375
70 0 70 0 0 -375z m300 298 l0 -78 -70 0 -70 0 0 78 0 77 70 0 70 0 0 -77z
m300 -298 l0 -375 -70 0 -70 0 0 375 0 375 70 0 70 0 0 -375z m600 0 l0 -375
-70 0 -70 0 0 375 0 375 70 0 70 0 0 -375z m300 298 l0 -78 -70 0 -70 0 0 78
0 77 70 0 70 0 0 -77z m300 -298 l0 -375 -70 0 -70 0 0 375 0 375 70 0 70 0 0
-375z m600 0 l0 -375 -75 0 -75 0 0 375 0 375 75 0 75 0 0 -375z m300 298 l0
-78 -75 0 -75 0 0 78 0 77 75 0 75 0 0 -77z m300 -298 l0 -375 -75 0 -75 0 0
375 0 375 75 0 75 0 0 -375z m-3922 55 c47 -44 15 -130 -48 -130 -38 0 -70 34
-70 75 0 41 32 75 70 75 14 0 36 -9 48 -20z m1196 -1 c19 -15 26 -30 26 -54 0
-36 -36 -75 -70 -75 -34 0 -70 39 -70 75 0 36 36 75 70 75 10 0 29 -9 44 -21z
m1200 0 c36 -28 36 -80 0 -108 -15 -12 -34 -21 -44 -21 -34 0 -70 39 -70 75 0
36 36 75 70 75 10 0 29 -9 44 -21z m1204 1 c47 -44 15 -130 -48 -130 -38 0
-70 34 -70 75 0 41 32 75 70 75 14 0 36 -9 48 -20z m-3568 -352 l0 -78 -75 0
-75 0 0 78 0 77 75 0 75 0 0 -77z m1190 0 l0 -78 -70 0 -70 0 0 78 0 77 70 0
70 0 0 -77z m1200 0 l0 -78 -70 0 -70 0 0 78 0 77 70 0 70 0 0 -77z m1200 0
l0 -78 -75 0 -75 0 0 78 0 77 75 0 75 0 0 -77z m-3290 -303 l0 -75 -375 0
-375 0 0 75 0 75 375 0 375 0 0 -75z m1190 0 l0 -75 -370 0 -370 0 0 75 0 75
370 0 370 0 0 -75z m1200 0 l0 -75 -370 0 -370 0 0 75 0 75 370 0 370 0 0 -75z
m1200 0 l0 -75 -375 0 -375 0 0 75 0 75 375 0 375 0 0 -75z m240 -300 l0 -75
-2410 0 -2410 0 0 75 0 75 2410 0 2410 0 0 -75z"/>
<path d="M2630 4221 l0 -601 532 0 531 0 -6 113 c-10 180 -44 313 -118 461
-172 340 -510 580 -878 622 l-61 7 0 -602z m298 374 c310 -124 556 -442 597
-769 l7 -56 -371 0 -371 0 0 435 0 435 28 -6 c15 -3 64 -21 110 -39z"/>
</g>
</svg>
