<?xml version="1.0" standalone="no"?>
<!DOCTYPE svg PUBLIC "-//W3C//DTD SVG 20010904//EN"
 "http://www.w3.org/TR/2001/REC-SVG-20010904/DTD/svg10.dtd">
<svg version="1.0" xmlns="http://www.w3.org/2000/svg"
 width="512.000000pt" height="512.000000pt" viewBox="0 0 512.000000 512.000000"
 preserveAspectRatio="xMidYMid meet">

<g transform="translate(0.000000,512.000000) scale(0.100000,-0.100000)"
fill="#000000" stroke="none">
<path d="M313 5095 c-121 -33 -212 -109 -266 -223 l-32 -67 0 -2245 0 -2245
32 -67 c36 -76 108 -155 171 -187 105 -54 -19 -51 2339 -51 1577 0 2197 3
2235 11 122 26 226 110 281 227 31 66 32 70 32 212 0 142 -1 146 -31 211 -37
78 -87 136 -152 177 -98 62 -93 62 -790 62 l-634 0 47 53 c26 29 67 96 93 149
l47 98 51 0 c237 1 428 156 466 380 15 86 1 184 -39 268 -31 66 -129 169 -190
201 -58 29 -147 51 -210 51 l-53 0 0 60 c0 70 -17 111 -55 128 -19 9 -198 12
-696 12 -727 0 -712 1 -737 -55 -19 -42 -17 -883 3 -983 20 -97 89 -240 150
-309 l47 -53 -306 0 -306 0 0 1300 0 1300 203 0 204 0 12 -57 c7 -32 33 -100
58 -152 37 -77 59 -108 126 -176 45 -45 107 -97 138 -114 l57 -32 4 -102 c5
-123 31 -191 103 -262 71 -71 141 -100 245 -100 71 0 94 5 142 27 117 55 194
166 205 298 l6 70 257 0 258 0 12 -31 c19 -45 94 -117 148 -142 46 -21 58 -22
422 -22 l375 0 49 24 c112 55 170 148 171 271 0 122 -55 212 -168 272 -41 23
-47 23 -427 23 -380 0 -386 0 -427 -23 -62 -32 -107 -75 -134 -127 l-24 -45
-163 0 -164 0 47 53 c54 61 128 208 146 290 l12 57 518 0 c345 0 536 4 571 11
122 26 226 110 281 227 l32 67 0 495 0 495 -32 67 c-55 117 -159 201 -281 227
-38 8 -657 11 -2240 10 -1852 0 -2195 -2 -2239 -14z m4483 -210 c54 -27 84
-60 102 -114 9 -24 12 -162 12 -466 l0 -433 -28 -53 c-22 -43 -38 -59 -81 -81
l-53 -28 -1530 0 c-1663 0 -1570 3 -1596 -55 -9 -20 -12 -368 -12 -1451 l0
-1426 34 -34 34 -34 1539 0 1540 0 44 -23 c24 -13 58 -43 74 -66 28 -40 30
-50 33 -144 3 -96 2 -105 -25 -157 -23 -44 -39 -59 -82 -82 l-53 -28 -2187 0
-2187 0 -50 25 c-54 27 -84 60 -102 114 -17 49 -17 4373 0 4422 18 54 48 87
102 114 l50 25 2186 0 2186 0 50 -25z m-1296 -1380 c0 -20 -49 -130 -77 -173
-96 -145 -255 -222 -463 -222 -208 0 -367 77 -463 222 -28 43 -77 153 -77 173
0 3 243 5 540 5 297 0 540 -2 540 -5z m1259 -409 c59 -31 67 -102 17 -152
l-34 -34 -332 0 -332 0 -34 34 c-50 50 -42 119 17 152 36 20 659 20 698 0z
m-1649 -220 c0 -63 -34 -121 -84 -145 -53 -26 -79 -26 -131 -1 -52 25 -85 81
-85 141 l0 44 150 0 150 0 0 -39z m400 -899 l0 -133 -67 -28 c-142 -58 -181
-58 -313 0 -58 26 -76 29 -170 29 -93 0 -112 -3 -170 -28 -133 -59 -173 -59
-312 -1 l-68 28 0 133 0 133 550 0 550 0 0 -133z m337 -82 c167 -70 216 -277
94 -402 -48 -50 -99 -74 -172 -80 l-59 -6 0 252 0 251 50 0 c28 0 67 -7 87
-15z m-766 -275 c130 -58 255 -63 371 -16 l58 24 0 -137 c0 -211 -35 -315
-145 -427 -104 -106 -230 -154 -405 -154 -175 0 -301 48 -405 154 -109 111
-145 218 -145 427 l0 137 58 -24 c116 -47 242 -42 370 15 91 41 151 41 243 1z"/>
<path d="M461 4696 c-49 -27 -50 -38 -51 -389 l0 -329 34 -34 34 -34 2082 0
2082 0 34 34 34 34 0 326 c0 355 -2 370 -55 394 -40 19 -4160 17 -4194 -2z
m4049 -386 l0 -200 -1950 0 -1950 0 0 200 0 200 1950 0 1950 0 0 -200z"/>
<path d="M785 3690 c-109 -35 -210 -133 -251 -243 -14 -37 -19 -77 -19 -142 0
-80 4 -97 32 -157 121 -256 447 -315 645 -117 28 28 63 78 81 117 29 61 32 76
32 162 0 86 -3 101 -31 161 -92 193 -292 282 -489 219z m216 -203 c24 -13 57
-42 73 -65 85 -121 3 -292 -149 -310 -54 -6 -139 32 -171 75 -99 134 -8 323
156 323 30 0 63 -8 91 -23z"/>
<path d="M785 2590 c-109 -35 -210 -133 -251 -243 -14 -37 -19 -77 -19 -142 0
-80 4 -97 32 -157 121 -256 447 -315 645 -117 28 28 63 78 81 117 29 61 32 76
32 162 0 86 -3 101 -31 161 -92 193 -292 282 -489 219z m216 -203 c24 -13 57
-42 73 -65 85 -121 3 -292 -149 -310 -54 -6 -139 32 -171 75 -99 134 -8 323
156 323 30 0 63 -8 91 -23z"/>
<path d="M785 1490 c-109 -35 -210 -133 -251 -243 -14 -37 -19 -77 -19 -142 0
-80 4 -97 32 -157 121 -256 447 -315 645 -117 28 28 63 78 81 117 29 61 32 76
32 162 0 86 -3 101 -31 161 -92 193 -292 282 -489 219z m216 -203 c24 -13 57
-42 73 -65 85 -121 3 -292 -149 -310 -54 -6 -139 32 -171 75 -99 134 -8 323
156 323 30 0 63 -8 91 -23z"/>
</g>
</svg>
