<?xml version="1.0" standalone="no"?>
<!DOCTYPE svg PUBLIC "-//W3C//DTD SVG 20010904//EN"
 "http://www.w3.org/TR/2001/REC-SVG-20010904/DTD/svg10.dtd">
<svg version="1.0" xmlns="http://www.w3.org/2000/svg"
 width="512.000000pt" height="512.000000pt" viewBox="0 0 512.000000 512.000000"
 preserveAspectRatio="xMidYMid meet">

<g transform="translate(0.000000,512.000000) scale(0.100000,-0.100000)"
fill="#000000" stroke="none">
<path d="M1355 5000 c-300 -77 -618 -169 -687 -199 -125 -55 -220 -122 -329
-230 -345 -343 -434 -841 -229 -1279 118 -251 344 -464 596 -562 44 -17 86
-34 94 -39 9 -5 96 -343 256 -1004 185 -757 250 -1010 271 -1048 45 -83 125
-139 226 -158 127 -23 202 9 501 219 133 93 264 178 291 190 83 35 179 45 254
26 69 -18 92 -32 184 -113 34 -30 98 -72 142 -93 142 -70 139 -70 713 -70 581
0 606 -2 710 -69 109 -71 176 -181 191 -314 12 -110 45 -147 131 -147 48 0 94
36 110 86 21 63 -11 219 -66 324 -91 174 -240 294 -421 341 -71 18 -114 19
-589 19 -342 0 -531 4 -566 11 -76 16 -135 49 -225 124 -134 113 -240 155
-394 155 -92 0 -201 -23 -289 -61 -28 -12 -108 -62 -178 -111 l-127 -89 -3 38
c-2 21 -26 389 -53 818 -27 429 -52 800 -55 825 -5 36 -2 49 13 62 10 10 100
42 198 72 837 254 1153 348 1170 348 11 0 133 -32 271 -71 158 -45 269 -71
300 -71 204 0 418 165 494 382 30 87 40 170 41 358 0 105 4 167 9 154 4 -11
22 -33 40 -47 l32 -27 324 0 c362 0 368 1 399 66 25 52 15 101 -30 142 l-35
32 -322 0 c-351 0 -356 -1 -394 -57 l-21 -32 -6 192 c-4 140 -10 207 -22 247
-76 245 -275 395 -520 393 -76 0 -130 -10 -346 -65 l-257 -65 -393 97 c-1232
305 -1254 310 -1314 309 -33 -1 -73 -5 -90 -9z m905 -429 l805 -197 3 -537 c2
-504 1 -536 -15 -541 -404 -119 -1290 -393 -1321 -409 -55 -27 -118 -95 -144
-155 -25 -56 -34 -154 -19 -207 9 -32 104 -1469 112 -1709 2 -51 -1 -62 -20
-77 -31 -25 -75 -24 -105 4 -21 19 -53 143 -280 1077 l-256 1055 0 887 c0 522
4 889 9 892 11 7 401 115 416 115 6 0 372 -89 815 -198z m-1480 -796 c0 -653
-2 -805 -13 -805 -20 0 -156 87 -216 138 -118 100 -235 287 -276 437 -23 83
-31 289 -15 379 45 254 201 477 430 612 41 24 78 44 82 44 5 0 8 -362 8 -805z
m3105 687 c54 -27 110 -85 137 -141 23 -46 23 -50 23 -471 l0 -425 -27 -50
c-57 -109 -158 -175 -266 -175 -26 0 -135 24 -242 53 l-195 52 -3 538 c-2 505
-1 538 15 544 10 4 101 29 203 55 209 53 283 58 355 20z"/>
<path d="M4345 4447 c-38 -38 -50 -74 -40 -114 3 -14 21 -41 40 -60 l33 -33
327 0 c363 0 369 1 400 66 19 40 19 68 0 108 -31 65 -37 66 -400 66 l-327 0
-33 -33z"/>
<path d="M4370 3402 c-46 -22 -75 -79 -65 -129 8 -44 52 -88 96 -97 59 -11
601 -6 639 7 41 14 80 68 80 109 0 41 -26 86 -63 108 -30 19 -52 20 -342 20
-275 0 -314 -2 -345 -18z"/>
</g>
</svg>
