<?xml version="1.0" standalone="no"?>
<!DOCTYPE svg PUBLIC "-//W3C//DTD SVG 20010904//EN"
 "http://www.w3.org/TR/2001/REC-SVG-20010904/DTD/svg10.dtd">
<svg version="1.0" xmlns="http://www.w3.org/2000/svg"
 width="512.000000pt" height="512.000000pt" viewBox="0 0 512.000000 512.000000"
 preserveAspectRatio="xMidYMid meet">

<g transform="translate(0.000000,512.000000) scale(0.100000,-0.100000)"
fill="#000000" stroke="none">
<path d="M1503 5102 c-109 -39 -178 -112 -210 -221 -20 -70 -13 -143 22 -218
22 -49 73 -105 327 -360 l301 -302 -209 -3 c-201 -3 -211 -4 -265 -29 -98 -46
-169 -141 -185 -246 l-6 -42 -517 -3 -516 -3 -56 -26 c-71 -33 -125 -87 -158
-158 l-26 -56 0 -1595 0 -1595 26 -56 c33 -71 87 -125 158 -158 l56 -26 2315
0 2315 0 56 26 c71 33 125 87 158 158 l26 56 0 1595 0 1595 -26 56 c-33 71
-87 125 -158 158 l-56 26 -516 3 -517 3 -6 42 c-16 105 -87 200 -185 246 -54
25 -64 26 -265 29 l-209 3 301 302 c346 347 357 363 357 497 0 181 -134 315
-315 315 -138 0 -141 -3 -577 -438 l-383 -381 -382 381 c-332 331 -391 385
-442 409 -77 35 -163 41 -233 16z m2337 -3262 l0 -1200 -1600 0 -1600 0 0
1200 0 1200 1600 0 1600 0 0 -1200z m772 368 c70 -32 124 -86 157 -157 54
-115 27 -264 -64 -356 -122 -121 -328 -121 -450 0 -78 78 -111 204 -82 306 57
194 259 289 439 207z m0 -960 c70 -32 124 -86 157 -157 54 -115 27 -264 -64
-356 -122 -121 -328 -121 -450 0 -78 78 -111 204 -82 306 57 194 259 289 439
207z"/>
</g>
</svg>
