<?xml version="1.0" standalone="no"?>
<!DOCTYPE svg PUBLIC "-//W3C//DTD SVG 20010904//EN"
 "http://www.w3.org/TR/2001/REC-SVG-20010904/DTD/svg10.dtd">
<svg version="1.0" xmlns="http://www.w3.org/2000/svg"
 width="512.000000pt" height="512.000000pt" viewBox="0 0 512.000000 512.000000"
 preserveAspectRatio="xMidYMid meet">

<g transform="translate(0.000000,512.000000) scale(0.100000,-0.100000)"
fill="#000000" stroke="none">
<path d="M1603 5005 c-76 -21 -129 -50 -185 -103 -73 -68 -115 -149 -133 -254
l-6 -38 -239 0 c-227 0 -241 -1 -260 -20 -11 -11 -20 -28 -20 -39 0 -10 101
-150 225 -310 l226 -292 -35 -362 c-84 -868 -108 -1329 -110 -2092 l-1 -500
23 -58 c13 -31 41 -80 63 -107 l40 -50 1231 2 1232 3 38 50 c21 28 48 75 61
105 22 55 22 59 21 545 -2 833 -36 1412 -139 2405 -30 289 -58 542 -61 563
l-6 39 163 -4 c182 -4 211 -12 276 -80 69 -71 67 -59 153 -920 44 -436 83
-803 85 -814 11 -48 95 -52 110 -5 5 17 -147 1565 -161 1636 -22 108 -103 209
-212 262 l-76 38 -173 3 -172 4 -7 36 c-17 105 -59 186 -132 254 -58 54 -110
82 -189 103 -83 22 -1550 21 -1630 0z m1641 -126 c96 -36 172 -128 191 -231
l7 -38 -1021 0 c-847 0 -1021 2 -1021 13 0 65 65 177 128 221 81 56 64 55 894
55 751 1 768 1 822 -20z m-1979 -431 c-3 -24 -12 -106 -20 -182 -8 -77 -17
-141 -18 -143 -2 -1 -35 39 -74 90 -39 50 -103 134 -142 185 l-72 92 166 0
166 0 -6 -42z m2189 20 c6 -27 89 -811 116 -1097 21 -216 17 -268 -27 -355
-33 -65 -118 -153 -201 -209 -120 -80 -193 -111 -402 -172 l-145 -41 -5 415
c-6 464 -6 460 -78 556 -170 225 -528 177 -635 -85 -22 -54 -22 -63 -25 -586
l-3 -531 -62 -18 c-105 -32 -347 -123 -424 -161 -102 -51 -202 -123 -301 -218
l-84 -81 6 150 c34 774 59 1108 146 1915 27 250 52 474 55 498 l6 42 1029 0
1030 0 4 -22z m-929 -897 c51 -23 107 -85 129 -142 15 -39 16 -92 14 -458 l-3
-414 -55 -18 c-117 -38 -423 -129 -431 -129 -5 0 -9 32 -9 70 l0 70 135 0
c122 0 137 2 155 20 25 25 25 55 0 80 -18 18 -33 20 -155 20 l-135 0 0 165 0
165 135 0 c122 0 137 2 155 20 11 11 20 29 20 40 0 11 -9 29 -20 40 -18 18
-33 20 -155 20 l-135 0 0 131 c0 73 5 149 12 171 15 51 82 126 133 149 53 25
156 25 210 0z m1100 -946 c23 -386 35 -805 35 -1216 0 -436 -1 -441 -89 -530
-96 -95 -16 -89 -1152 -89 -1134 0 -1054 -6 -1149 90 -88 87 -90 99 -90 488
l0 325 41 53 c55 71 190 199 270 257 88 62 220 124 402 186 82 28 151 51 153
51 2 0 4 -166 4 -368 0 -415 4 -448 68 -542 145 -214 471 -210 610 7 60 93 62
117 62 650 l0 482 73 21 c386 112 535 184 675 329 37 38 68 68 69 67 1 -1 9
-118 18 -261z m-955 -667 l0 -473 -24 -51 c-70 -150 -263 -192 -387 -85 -62
53 -89 118 -89 219 l0 82 135 0 c122 0 137 2 155 20 11 11 20 29 20 40 0 11
-9 29 -20 40 -18 18 -33 20 -155 20 l-135 0 0 165 0 165 135 0 c122 0 137 2
155 20 11 11 20 29 20 40 0 11 -9 29 -20 40 -18 18 -33 20 -156 20 l-135 0 3
32 3 32 235 72 c129 40 241 73 248 73 9 1 12 -100 12 -471z"/>
<path d="M2350 4219 c-60 -25 -110 -101 -110 -166 0 -52 37 -123 79 -150 92
-61 209 -31 259 67 27 54 28 101 3 156 -28 62 -80 97 -149 101 -32 1 -68 -2
-82 -8z m112 -126 c38 -34 11 -103 -40 -103 -53 0 -83 68 -46 104 20 21 63 20
86 -1z"/>
<path d="M3187 2192 c-15 -17 -17 -61 -17 -425 0 -394 1 -408 20 -427 11 -11
29 -20 40 -20 11 0 29 9 40 20 19 19 20 33 20 428 0 383 -1 410 -18 425 -24
22 -65 21 -85 -1z"/>
<path d="M3186 1138 c-12 -17 -16 -48 -16 -118 0 -110 13 -140 60 -140 47 0
60 30 60 140 0 110 -13 140 -60 140 -18 0 -34 -8 -44 -22z"/>
</g>
</svg>
