<?xml version="1.0" standalone="no"?>
<!DOCTYPE svg PUBLIC "-//W3C//DTD SVG 20010904//EN"
 "http://www.w3.org/TR/2001/REC-SVG-20010904/DTD/svg10.dtd">
<svg version="1.0" xmlns="http://www.w3.org/2000/svg"
 width="512.000000pt" height="512.000000pt" viewBox="0 0 512.000000 512.000000"
 preserveAspectRatio="xMidYMid meet">

<g transform="translate(0.000000,512.000000) scale(0.100000,-0.100000)"
fill="#000000" stroke="none">
<path d="M2386 4479 c-634 -40 -1248 -269 -1755 -653 -208 -158 -531 -466
-585 -558 -38 -67 -53 -155 -37 -230 16 -80 39 -124 93 -178 92 -93 240 -125
362 -80 52 20 82 45 248 206 213 206 304 283 463 389 307 204 628 330 1010
396 174 30 532 38 715 15 295 -37 566 -118 825 -245 276 -136 462 -271 712
-514 175 -170 215 -192 343 -192 71 0 94 4 140 26 171 81 245 283 165 456 -46
101 -340 379 -598 564 -496 356 -1067 557 -1702 599 -167 11 -213 11 -399 -1z"/>
<path d="M2340 3224 c-336 -51 -640 -179 -912 -385 -128 -98 -431 -403 -463
-467 -94 -191 -20 -410 172 -508 53 -26 67 -29 158 -29 149 0 172 14 390 224
231 223 365 312 563 375 371 117 778 51 1082 -174 41 -31 133 -112 205 -180
163 -155 219 -185 340 -185 44 0 98 6 121 12 98 30 194 124 234 230 32 84 25
207 -15 287 -55 109 -298 341 -510 487 -242 167 -549 281 -855 319 -118 14
-396 11 -510 -6z"/>
<path d="M2442 1815 c-208 -45 -386 -216 -447 -428 -20 -70 -23 -212 -5 -287
30 -130 116 -264 217 -339 122 -90 223 -124 374 -124 221 1 422 126 523 326
66 130 82 273 46 411 -29 113 -73 190 -160 277 -147 148 -346 208 -548 164z"/>
</g>
</svg>
